<svg enable-background="new 0 0 100 100" height="512" viewBox="0 0 100 100" width="512" xmlns="http://www.w3.org/2000/svg"><path d="m27.4487247 63.2170486s6.1917019-4.7417068 16.5877132-2.3298302c7.9912987 1.853981 13.8694649.4371147 16.1612663-.3175583 1.3565598-.446701 2.7512054-.7728539 4.1710091-.9276733 2.5788727-.281208 5.3638153-.5187187 6.281517 1.9289436 1.2706909 3.3891602-1.0811844 4.2232056-1.0811844 4.2232056s20.4593506-9.6474991 24.6177521-5.7386017c0 0 1.8297043 1.4970284 0 3.1603889l-17.0494537 9.3148308s-3.6838303 1.9340057-8.9956436 4.1916199c-3.3064728 1.4053116-6.5082169 3.0427551-9.6236343 4.8321228-2.0272179 1.1643524-4.459877 2.2039413-6.0816498 1.7049408 0 0-13.3441582-4.4899597-21.910471-1.9117432z" fill="#cea94c"/><path d="m45.3496971 71.1512985c2.196682-.3123932 4.3969345-.5078125 6.598526-.6609116 1.099247-.0893402 2.2047806-.1301804 3.3007393-.2003174 1.0797577-.0540848 2.1558456-.1618729 3.2217369-.3318863 2.1345444-.3213043 4.2324944-.8730545 6.2628746-1.6329803 1.0105743-.3875885 2.0205688-.8123398 2.9898758-1.3058548.9640579-.4980469 1.9296494-1.0280609 2.6872406-1.8386383-.5667038.9709244-1.4966507 1.6771011-2.4051971 2.3154755-.9318085.6245499-1.9058304 1.1730576-2.9219742 1.6531296-2.0263748.9731674-4.2130051 1.6049118-6.4344177 1.9644394-1.1140175.1631012-2.2371368.260788-3.3610649.28685-1.1080132.0038605-2.2068291.0260696-3.3116989.0058136-2.206833-.0178681-4.4149514-.0780488-6.6266404-.2551194z" fill="#c39c47"/><path d="m69.3629303 62.6379013c-.4259796-1.3477554-1.8638916-2.0950699-3.2117157-1.6690674l-2.4403915.771328 1.5426559 4.8807869 2.4403915-.7713318c1.3478241-.4260025 2.0950623-1.8638878 1.6690598-3.2117157z" fill="#e6e7e8"/><path d="m31.4208393 83.0889511-5.2535858 1.1596146-3.8570328-22.7878685 5.2535858-1.1596108z" fill="#e6e7e8"/><path d="m28.0307541 86.6418839-5.9021168.999321c-8.2832527-6.6516038-14.4039421-15.8952027-17.1286373-26.4971238l18.1904297-3.0760231.4918003 2.8964767 3.856678 22.788784z" fill="#344e5c"/><path d="m61.3056793 21.7803555c2.4587288-2.5124149 3.4252319-5.4163303 5.0153046-7.1747456.4806366-.5315609.3225937-1.3798256-.328331-1.6796227-2.6798859-1.23423-5.3598251-.2175226-8.0397644.8055391-2.1621552.8253126-4.3242607 1.6466303-6.4864197 1.2849474-.8636856-.1443653-1.5208092.7509279-1.1149673 1.5268555 1.0147095 1.9403839 1.8990402 3.988554 3.3956718 5.5306759-7.7573853 2.9718456-13.5174179 13.6142387-13.5174179 21.9530334 0 9.7889023 7.9355087 12.6883087 17.7244644 12.6883087 9.7889061 0 17.7244148-2.8994064 17.7244148-12.6883087 0-8.6425857-6.1871872-19.760086-14.3729553-22.246683z" fill="#cd5148"/><path d="m62.2999535 20.8289146h-9.7413368c-.4308777 0-.7834587.3525295-.7834587.7834072 0 .4309788.352581.7834072.7834587.7834072h9.7413368c.4308777 0 .7834549-.3524284.7834549-.7834072 0-.4308776-.3525773-.7834072-.7834549-.7834072z" fill="#e6e7e8"/><circle cx="57.954" cy="40.397" fill="#feed32" r="9.569"/><circle cx="57.954" cy="40.397" fill="#efba1b" r="7.012"/><path d="m57.5758743 45.7108383v-.8083458c-.7292976-.0434303-1.278019-.285778-1.646492-.7272758-.3685875-.441494-.5528831-1.077858-.5528831-1.9095459v-.230648h1.4366608c0 .0315018-.0020256.0789833-.0058517.1419907-.0040512.0630074-.0059624.1084595-.0059624.1359138 0 .4178658.0669441.7389755.2010574.9635468.1338882.2248001.342823.3627396.6266899.4140434v-2.6842995c-.7765541-.425518-1.3302231-.8562126-1.6613464-1.2916336-.3311195-.435421-.496624-.9468994-.496624-1.5342064 0-.6818199.1862068-1.2257042.5587311-1.6318703.3724136-.4057159.8877182-.6246643 1.5460205-.6561661v-.8098602h.6680946v.821785c.6777687.0078773 1.1941986.1971207 1.5489464.5675087.3546371.370388.5320702.9084206.5320702 1.6138649v.1714706h-1.4012222v-.1239891c0-.3350601-.0640182-.5972099-.1920547-.7864571-.1281509-.1890182-.3065948-.2896042-.5351067-.3015289v2.4180984c.898632.4651222 1.5124931.9086418 1.8415909 1.3303375.3290939.4216919.4936981.9477959.4936981 1.578537 0 .776329-.196106 1.3814163-.5882072 1.8148117-.3922157.4336205-.9588242.672142-1.6997147.7155724v.8083458zm.0532189-6.5727615-.0059624-2.1046448c-.2286224.0198021-.4040298.1134148-.5262184.2808304-.1221848.1674156-.1831665.3971672-.1831665.688797 0 .2207451.0580559.4246178.1743927.6118355.1162224.1872215.2964668.3616142.5409546.5231819zm.5675087 4.5524406c.2640648-.0474777.4650116-.1626892.6030617-.3458595.1379395-.1833954.2069092-.4266434.2069092-.7302017 0-.2995033-.0590668-.5459061-.1773186-.7389755-.118248-.1930695-.3292084-.386364-.6326523-.5794334z" fill="#e6e7e8"/></svg>